<?xml version="1.0" encoding="UTF-8"?>
<!DOCTYPE svg PUBLIC "-//W3C//DTD SVG 1.0//EN" "http://www.w3.org/TR/2001/REC-SVG-20010904/DTD/svg10.dtd">
<!-- Creator: CorelDRAW 2019 (64-Bit Versión de evaluación) -->
<svg xmlns="http://www.w3.org/2000/svg" xml:space="preserve" width="472px" height="127px" version="1.0" style="shape-rendering:geometricPrecision; text-rendering:geometricPrecision; image-rendering:optimizeQuality; fill-rule:evenodd; clip-rule:evenodd"
viewBox="0 0 1511.09 408.41"
 xmlns:xlink="http://www.w3.org/1999/xlink">
 <defs>
  <style type="text/css">
   <![CDATA[
    .fil0 {fill:#333333}
    .fil3 {fill:white}
    .fil2 {fill:#FF5619;fill-rule:nonzero}
    .fil1 {fill:white;fill-rule:nonzero}
   ]]>
  </style>
 </defs>
 <g id="Capa_x0020_1">
  <metadata id="CorelCorpID_0Corel-Layer"/>
  <rect class="fil0" width="1511.09" height="408.41"/>
  <path class="fil1" d="M205.76 160.89l-17.06 17.46c-14.15,-13.61 -28.03,-20.42 -41.54,-20.42 -8.58,0 -15.95,2.83 -22.09,8.48 -6.13,5.58 -9.23,12.2 -9.23,19.71 0,6.61 2.51,12.97 7.56,18.94 5.04,6.16 15.69,13.36 31.84,21.64 19.64,10.08 33.01,19.9 40.11,29.27 6.91,9.51 10.41,20.23 10.41,32.11 0,16.82 -5.95,31.01 -17.84,42.69 -11.88,11.62 -26.74,17.47 -44.57,17.47 -11.88,0 -23.18,-2.57 -34.04,-7.71 -10.78,-5.13 -19.69,-12.2 -26.8,-21.25l16.66 -18.81c13.5,15.15 27.91,22.73 43.09,22.73 10.59,0 19.63,-3.4 27.13,-10.15 7.43,-6.74 11.17,-14.7 11.17,-23.82 0,-7.51 -2.45,-14.18 -7.36,-20.09 -4.98,-5.78 -16.09,-13.04 -33.4,-21.77 -18.6,-9.5 -31.26,-18.87 -37.91,-28.12 -6.72,-9.24 -10.08,-19.78 -10.08,-31.65 0,-15.48 5.36,-28.32 16.02,-38.59 10.72,-10.21 24.22,-15.35 40.56,-15.35 18.99,0 38.11,9.06 57.37,27.23z"/>
  <path class="fil1" d="M426.1 275.43l22.35 11.69c-7.37,14.18 -15.83,25.68 -25.45,34.41 -9.63,8.66 -20.41,15.34 -32.43,19.9 -12.08,4.56 -25.64,6.81 -40.82,6.81 -33.72,0 -60.01,-10.92 -79,-32.75 -18.99,-21.83 -28.48,-46.48 -28.48,-73.96 0,-25.88 8.07,-48.99 24.15,-69.22 20.35,-25.74 47.67,-38.65 81.85,-38.65 35.2,0 63.36,13.23 84.35,39.62 14.93,18.62 22.55,41.86 22.8,69.79l-186.03 0c0.52,23.69 8.21,43.08 23,58.17 14.86,15.15 33.2,22.73 54.97,22.73 10.53,0 20.8,-1.8 30.74,-5.4 9.95,-3.59 18.42,-8.34 25.39,-14.31 6.98,-5.97 14.53,-15.54 22.61,-28.83zm0.26 -55.09c-3.56,-14.06 -8.72,-25.23 -15.51,-33.64 -6.85,-8.41 -15.82,-15.15 -27,-20.29 -11.17,-5.14 -22.93,-7.71 -35.2,-7.71 -20.35,0 -37.79,6.43 -52.39,19.33 -10.72,9.44 -18.73,23.5 -24.22,42.31l154.32 0z"/>
  <path class="fil1" d="M504.22 138.67l26.35 0 0 36.66c10.66,-13.99 22.41,-24.46 35.27,-31.33 12.92,-6.87 26.94,-10.34 42.12,-10.34 15.43,0 29.12,3.85 41.08,11.63 11.95,7.77 20.79,18.23 26.48,31.39 5.69,13.1 8.52,33.58 8.52,61.38l0 105.17 -26.35 0 0 -97.46c0,-23.5 -1.03,-39.23 -3.03,-47.13 -3.24,-13.48 -9.18,-23.63 -17.89,-30.5 -8.73,-6.8 -20.1,-10.21 -34.12,-10.21 -16.08,0 -30.48,5.27 -43.14,15.8 -12.72,10.46 -21.12,23.5 -25.13,39.03 -2.52,10.15 -3.81,28.64 -3.81,55.54l0 74.93 -26.35 0 0 -204.56z"/>
  <path class="fil1" d="M844.46 160.89l-17.06 17.46c-14.14,-13.61 -28.03,-20.42 -41.53,-20.42 -8.59,0 -15.96,2.83 -22.09,8.48 -6.14,5.58 -9.24,12.2 -9.24,19.71 0,6.61 2.52,12.97 7.56,18.94 5.04,6.16 15.69,13.36 31.84,21.64 19.64,10.08 33.01,19.9 40.12,29.27 6.91,9.51 10.4,20.23 10.4,32.11 0,16.82 -5.95,31.01 -17.83,42.69 -11.89,11.62 -26.75,17.47 -44.57,17.47 -11.89,0 -23.19,-2.57 -34.04,-7.71 -10.79,-5.13 -19.7,-12.2 -26.81,-21.25l16.66 -18.81c13.5,15.15 27.91,22.73 43.09,22.73 10.59,0 19.63,-3.4 27.13,-10.15 7.43,-6.74 11.17,-14.7 11.17,-23.82 0,-7.51 -2.45,-14.18 -7.36,-20.09 -4.98,-5.78 -16.09,-13.04 -33.4,-21.77 -18.6,-9.5 -31.26,-18.87 -37.91,-28.12 -6.72,-9.24 -10.08,-19.78 -10.08,-31.65 0,-15.48 5.36,-28.32 16.02,-38.59 10.72,-10.21 24.22,-15.35 40.57,-15.35 18.98,0 38.11,9.06 57.36,27.23z"/>
  <path class="fil1" d="M1064.8 275.43l22.35 11.69c-7.36,14.18 -15.82,25.68 -25.45,34.41 -9.62,8.66 -20.41,15.34 -32.42,19.9 -12.09,4.56 -25.65,6.81 -40.83,6.81 -33.72,0 -60.01,-10.92 -79,-32.75 -18.99,-21.83 -28.48,-46.48 -28.48,-73.96 0,-25.88 8.07,-48.99 24.16,-69.22 20.34,-25.74 47.66,-38.65 81.84,-38.65 35.2,0 63.36,13.23 84.36,39.62 14.91,18.62 22.54,41.86 22.8,69.79l-186.03 0c0.51,23.69 8.2,43.08 22.99,58.17 14.86,15.15 33.2,22.73 54.97,22.73 10.53,0 20.8,-1.8 30.75,-5.4 9.95,-3.59 18.41,-8.34 25.38,-14.31 6.98,-5.97 14.53,-15.54 22.61,-28.83zm0.26 -55.09c-3.55,-14.06 -8.72,-25.23 -15.5,-33.64 -6.85,-8.41 -15.83,-15.15 -27,-20.29 -11.18,-5.14 -22.94,-7.71 -35.21,-7.71 -20.35,0 -37.78,6.43 -52.39,19.33 -10.72,9.44 -18.73,23.5 -24.22,42.31l154.32 0z"/>
  <path class="fil1" d="M1246.79 160.89l-17.06 17.46c-14.14,-13.61 -28.03,-20.42 -41.53,-20.42 -8.59,0 -15.96,2.83 -22.09,8.48 -6.14,5.58 -9.24,12.2 -9.24,19.71 0,6.61 2.52,12.97 7.56,18.94 5.04,6.16 15.69,13.36 31.84,21.64 19.64,10.08 33.01,19.9 40.12,29.27 6.91,9.51 10.4,20.23 10.4,32.11 0,16.82 -5.95,31.01 -17.84,42.69 -11.88,11.62 -26.74,17.47 -44.56,17.47 -11.89,0 -23.19,-2.57 -34.04,-7.71 -10.79,-5.13 -19.7,-12.2 -26.81,-21.25l16.67 -18.81c13.49,15.15 27.9,22.73 43.08,22.73 10.59,0 19.64,-3.4 27.13,-10.15 7.43,-6.74 11.18,-14.7 11.18,-23.82 0,-7.51 -2.46,-14.18 -7.37,-20.09 -4.97,-5.78 -16.09,-13.04 -33.39,-21.77 -18.61,-9.5 -31.27,-18.87 -37.92,-28.12 -6.72,-9.24 -10.08,-19.78 -10.08,-31.65 0,-15.48 5.36,-28.32 16.02,-38.59 10.72,-10.21 24.22,-15.35 40.57,-15.35 18.99,0 38.11,9.06 57.36,27.23z"/>
  <path class="fil2" d="M1454.21 66.63l0 26.2 -98.76 0 -14.02 75.38c12.08,-3.53 23,-5.27 32.75,-5.27 25.32,0 46.25,8.41 62.72,25.3 16.47,16.88 24.68,38.46 24.68,64.84 0,18.17 -4.2,34.87 -12.66,50.02 -8.47,15.22 -19.96,26.84 -34.37,34.93 -14.47,8.09 -31.2,12.14 -50.12,12.14 -22.61,0 -41.67,-6.94 -57.17,-20.74 -15.51,-13.81 -24.8,-31.66 -27.84,-53.62l28.68 0c2.13,10.66 5.75,19.33 10.85,25.94 5.11,6.68 11.95,12.01 20.41,16.12 8.53,4.05 17.44,6.1 26.81,6.1 18.28,0 33.98,-6.87 47.09,-20.61 13.11,-13.74 19.63,-30.88 19.63,-51.49 0,-18.62 -5.94,-33.71 -17.76,-45.33 -11.88,-11.62 -27.64,-17.4 -47.48,-17.4 -16.4,0 -36.23,5.01 -59.55,15.02l25.58 -137.53 120.53 0z"/>
  <polygon class="fil3" points="81.88,66.61 1308.63,66.61 1303.87,92.81 81.88,92.81 "/>
 </g>
</svg>
